<?xml version="1.0" encoding="iso-8859-1"?>
<!-- Generator: Adobe Illustrator 19.0.0, SVG Export Plug-In . SVG Version: 6.00 Build 0)  -->
<svg version="1.1" id="Layer_1" xmlns="http://www.w3.org/2000/svg" xmlns:xlink="http://www.w3.org/1999/xlink" x="0px" y="0px"
	 viewBox="0 0 392.444 392.444" style="enable-background:new 0 0 392.444 392.444;" xml:space="preserve">
<g id="XMLID_460_">
	<path id="XMLID_1455_" style="fill:#95D5A7;" d="M392.346,182.255L392.444,0L210.22,0.098
		c-44.203,1.014-88.099,18.337-121.832,52.07c-69.557,69.557-69.557,182.331,0,251.888c69.558,69.558,182.332,69.558,251.889,0.001
		C374.001,270.332,391.322,226.446,392.346,182.255z"/>
	<path id="XMLID_461_" style="fill:#80CB93;" d="M81.526,180c0-73.271,28.382-136.844,69.95-168.545
		c-23.003,8.644-44.577,22.202-63.088,40.713c-69.557,69.557-69.557,182.331,0,251.888c16.153,16.153,34.64,28.55,54.372,37.2
		C105.992,307.692,81.526,248.027,81.526,180z"/>
	<path id="XMLID_462_" style="fill:#AEDEBA;" d="M351.526,0.023v291.678c26.33-31.738,39.917-70.471,40.82-109.446L392.444,0
		L351.526,0.023z"/>
	<polygon id="XMLID_463_" style="fill:#D3EDD7;" points="293.449,205.919 293.449,175.919 237.738,175.919 289.914,123.744 
		268.701,102.531 216.526,154.706 216.526,98.995 186.526,98.995 186.526,184.706 152.886,218.346 152.886,98.995 122.886,98.995 
		122.886,248.346 0,371.231 21.213,392.444 144.099,269.559 293.449,269.559 293.449,239.559 174.099,239.559 207.738,205.919 	"/>
</g>
<g>
</g>
<g>
</g>
<g>
</g>
<g>
</g>
<g>
</g>
<g>
</g>
<g>
</g>
<g>
</g>
<g>
</g>
<g>
</g>
<g>
</g>
<g>
</g>
<g>
</g>
<g>
</g>
<g>
</g>
</svg>
